# xmcd
#
# Track frame offsets: 
#        150
#        19964
#        40348
#        56884
#        74801
#        98461
#        114840
#        135269
#        152744
#        168907
#        173299
#
# Disc length: 2667 seconds
#
# Revision: 0
# Processed by: cddbd v1.5.2PL0 Copyright (c) Steve Scherf et al.
# Submitted via: ExactAudioCopyFreeDBPlugin 1.0
#
DISCID=850a690b
DTITLE=Judith Hill - Golden Child
DYEAR=2018
DGENRE=R&B
TTITLE0=Golden Child
TTITLE1=Hey Stranger
TTITLE2=You Can't Blame Me
TTITLE3=The Pepper Club
TTITLE4=Irreplaceable Love
TTITLE5=Chasing Rainbows
TTITLE6=I Can Only Love You by Life
TTITLE7=Gypsy Lover
TTITLE8=Queen of the Hill
TTITLE9=The Golden Circle
TTITLE10=We Are One
EXTD=
EXTT0=
EXTT1=
EXTT2=
EXTT3=
EXTT4=
EXTT5=
EXTT6=
EXTT7=
EXTT8=
EXTT9=
EXTT10=
PLAYORDER=
